Coordinates
version=1
nRows=22
nColumns=24
inDegrees=yes

Units are S.I. units (second, meters, Newtons, ...)
Angles are in degrees.

endheader
time	pelvis_tilt	pelvis_list	pelvis_rotation	pelvis_tx	pelvis_ty	pelvis_tz	hip_flexion_r	hip_adduction_r	hip_rotation_r	knee_angle_r	ankle_angle_r	subtalar_angle_r	mtp_angle_r	hip_flexion_l	hip_adduction_l	hip_rotation_l	knee_angle_l	ankle_angle_l	subtalar_angle_l	mtp_angle_l	lumbar_extension	lumbar_bending	lumbar_rotation
      0.44200000	     -3.29879391	      0.63644726	     -0.71529979	     -0.77748290	      1.05409430	      0.31091659	     23.99506576	      2.56574851	     -7.71291516	     -2.61167196	      5.33418218	     -3.23991702	     -0.14441057	     -5.60020207	      4.19946981	     -3.88101718	    -14.15518624	     14.95800532	      4.25050257	      0.22612388	      4.18648917	      2.00219299	     -2.10124986
      0.44616667	     -3.28517668	      0.64120347	     -0.73148479	     -0.77162725	      1.05375757	      0.31106777	     23.93979451	      2.60776992	     -7.60439193	     -2.88188337	      5.29782402	     -3.23639124	     -0.15351304	     -5.62094081	      4.15374912	     -3.92526803	    -14.84507566	     14.89276560	      4.20511690	      0.21134265	      4.25514267	      2.00579830	     -2.15134409
      0.45033333	     -3.36523983	      0.67995028	     -0.93757003	     -0.76569310	      1.05320301	      0.31168203	     24.02254906	      2.71569187	     -7.28147965	     -3.27923503	      5.33385812	     -3.35085954	     -0.21600416	     -5.51603015	      4.12596768	     -4.38533672	    -15.58220723	     14.71898676	      4.46361078	      0.12453205	      4.37993665	      1.86140302	     -2.46485667
      0.45450000	     -3.31414553	      0.66084307	     -0.90246121	     -0.75968753	      1.05298430	      0.31176959	     23.90272759	      2.75897586	     -7.15993457	     -3.61601100	      5.30816563	     -3.33019934	     -0.22238410	     -5.52817095	      4.03297568	     -4.42036937	    -16.38200995	     14.65639876	      4.49093870	      0.11607565	      4.44178324	      1.90586633	     -2.48379893
      0.45866667	     -3.33461215	      0.63556557	     -0.96051982	     -0.75360831	      1.05262764	      0.31226141	     23.87608350	      2.87790790	     -6.97784436	     -4.02461400	      5.31579439	     -3.37525691	     -0.25012969	     -5.41814130	      3.89125621	     -4.83937907	    -17.27553081	     14.48696275	      4.88396774	      0.08815495	      4.33027357	      1.89334240	     -2.58623096
      0.46283333	     -3.22382390	      0.64831035	     -1.13160177	     -0.74761372	      1.05243424	      0.31286728	     23.71785520	      2.99389436	     -6.55965290	     -4.47004358	      5.26180508	     -3.55167268	     -0.30334460	     -5.44217160	      3.80216072	     -5.29497231	    -18.17099490	     14.32197101	      5.72130814	      0.05275584	      4.37795710	      1.83871280	     -2.70235116
      0.46700000	     -3.13445867	      0.62327528	     -1.08471004	     -0.74154021	      1.05232291	      0.31292988	     23.54481942	      3.03272427	     -6.41806593	     -4.88268221	      5.20352019	     -3.54124598	     -0.30841702	     -5.40762364	      3.68033871	     -5.36018554	    -19.14128641	     14.23854143	      5.75573099	      0.05025500	      4.43461405	      1.90299436	     -2.70644114
      0.47116667	     -3.04611603	      0.58120747	     -1.22042932	     -0.73538958	      1.05215937	      0.31379792	     23.35106017	      3.22699643	     -5.83536136	     -5.26355802	      4.94849481	     -3.99722999	     -0.37460472	     -5.33574742	      3.46578938	     -5.96099678	    -20.18938153	     13.92464167	      6.78133931	      0.04953306	      4.34391323	      1.82062532	     -2.75451796
      0.47533333	     -2.95088762	      0.55907915	     -1.28863797	     -0.72934559	      1.05204109	      0.31435138	     23.16885794	      3.34392692	     -5.43591584	     -5.68677657	      4.67328469	     -4.45627354	     -0.43896342	     -5.23003150	      3.29224713	     -6.34373137	    -21.30138849	     13.67114482	      7.30460251	      0.07369795	      4.25353318	      1.84359066	     -2.74236459
      0.47950000	     -2.83452111	      0.53997274	     -1.25833526	     -0.72327653	      1.05200781	      0.31443159	     22.96501712	      3.37332478	     -5.31296805	     -6.14178473	      4.59326989	     -4.43202538	     -0.44221271	     -5.12132112	      3.15373727	     -6.45536410	    -22.46082523	     13.52470541	      7.32641594	      0.07743185	      4.29120801	      1.93488387	     -2.74527051
      0.48366667	     -2.76175791	      0.48400613	     -1.35786121	     -0.71710445	      1.05188365	      0.31520579	     22.77891641	      3.55325053	     -4.84859843	     -6.53517907	      4.17980130	     -4.79282544	     -0.48135739	     -4.93229677	      2.89954244	     -6.96411143	    -23.66621537	     12.80388129	      8.07868243	      0.14061622	      4.16513520	      1.89809123	     -2.74290202
      0.48783333	     -2.70255633	      0.43118923	     -1.34652186	     -0.71098413	      1.05179419	      0.31551770	     22.62467667	      3.64430074	     -4.70808080	     -6.98658346	      4.02402158	     -4.86224353	     -0.48970081	     -4.68093685	      2.67454530	     -7.22523406	    -24.97266217	     12.53068897	      8.21493059	      0.16331462	      4.04100202	      2.00756310	     -2.75525241
      0.49200000	     -2.58192470	      0.42833361	     -1.45574800	     -0.70503252	      1.05174904	      0.31608156	     22.42440045	      3.73644129	     -4.33082625	     -7.44201039	      3.58006772	     -5.23909651	     -0.51338789	     -4.46526506	      2.49788191	     -7.58416854	    -26.27714623	     11.71322255	      8.83865427	      0.23994982	      3.97528396	      2.03857150	     -2.75264476
      0.49616667	     -2.49200115	      0.35743521	     -1.48693285	     -0.69893457	      1.05171499	      0.31666572	     22.20800116	      3.88210060	     -3.96628919	     -7.82903527	      3.19354360	     -5.68092890	     -0.53565253	     -4.17969882	      2.20921428	     -7.92093942	    -27.68041207	     11.07131157	      9.27728718	      0.34467250	      3.89153943	      2.12343780	     -2.73789641
      0.50033333	     -2.38583549	      0.24288123	     -1.49666519	     -0.69272525	      1.05173603	      0.31734814	     21.93005298	      4.08011944	     -3.49857614	     -8.13862955	      2.71532399	     -6.38102755	     -0.56905757	     -3.88895910	      1.84752239	     -8.24199813	    -29.12552940	     10.37220519	      9.70030024	      0.56873794	      3.96288578	      2.11024598	     -2.66382796
      0.50450000	     -2.30968028	      0.19576989	     -1.52605627	     -0.68681275	      1.05167504	      0.31774068	     21.77266423	      4.16847557	     -3.30389441	     -8.60855880	      2.42805153	     -6.57385741	     -0.58202909	     -3.50454024	      1.59550715	     -8.46416108	    -30.64271497	      9.70644358	      9.95120838	      0.69145132	      3.78944096	      2.26818527	     -2.66355970
      0.50866667	     -2.24725011	      0.07562824	     -1.55522333	     -0.68069817	      1.05162184	      0.31843205	     21.55988092	      4.37119017	     -2.87745050	     -8.94677222	      1.91643350	     -7.38050406	     -0.62033203	     -3.08908927	      1.21342979	     -8.77222445	    -32.19957339	      8.86093472	     10.17930274	      1.16395742	      3.82882186	      2.36102619	     -2.58906722
      0.51283333	     -2.14890006	     -0.00982663	     -1.53602009	     -0.67481364	      1.05162450	      0.31871815	     21.36877207	      4.46970166	     -2.77957064	     -9.40162139	      1.69923418	     -7.37736608	     -0.62617339	     -2.65764629	      0.90792606	     -8.89773082	    -33.80200959	      8.02656570	     10.43023619	      1.27849919	      3.67428336	      2.49277999	     -2.58848075
      0.51700000	     -2.05894020	     -0.12682990	     -1.51260820	     -0.66885652	      1.05162447	      0.31906369	     21.16831607	      4.60485328	     -2.66669937	     -9.82889260	      1.44216143	     -7.51865259	     -0.63399217	     -2.19440884	      0.55263729	     -9.02155185	    -35.43230884	      7.04017953	     10.62135622	      1.40953184	      3.59440980	      2.64352219	     -2.58058893
      0.52116667	     -1.98024018	     -0.25256731	     -1.48799055	     -0.66295018	      1.05160673	      0.31941409	     20.97937253	      4.74739454	     -2.54337242	    -10.25134849	      1.18696140	     -7.72184479	     -0.64207433	     -1.68446280	      0.18452891	     -9.11533187	    -37.10226461	      6.04964365	     10.73291724	      1.54701563	      3.51710884	      2.80294550	     -2.56924260
      0.52533333	     -1.89016677	     -0.40226820	     -1.45906668	     -0.65707262	      1.05160678	      0.31976702	     20.77748775	      4.91215450	     -2.44663485	    -10.67482333	      0.94533012	     -7.95847535	     -0.65055236	     -1.15875250	     -0.21517355	     -9.18791813	    -38.79688194	      5.01935756	     10.79226155	      1.69680699	      3.44131932	      2.97779520	     -2.55389437
      0.52950000	     -1.82721859	     -0.55411113	     -1.42837922	     -0.65124638	      1.05156049	      0.32009585	     20.60773510	      5.07385827	     -2.36421493	    -11.10138158	      0.73607488	     -8.17844809	     -0.65848852	     -0.57250348	     -0.61204139	     -9.21593497	    -40.52102886	      4.00812304	     10.79351932	      1.84818013	      3.38199154	      3.16706359	     -2.53481261
